HIERARCHY
ROOT Hips
{
	OFFSET 0.000000 0.000000 0.000000
	CHANNELS 6 Xposition Yposition Zposition Xrotation Yrotation Zrotation
	JOINT LeftUpLeg_virtual
	{
		OFFSET 0.000000 0.000000 0.000000
		CHANNELS 3 Xrotation Yrotation Zrotation
		JOINT LeftUpLeg
		{
			OFFSET 13.026900 -6.336304 -1.092800
			CHANNELS 3 Xrotation Yrotation Zrotation
			JOINT LeftLeg
			{
				OFFSET 0.524474 -46.096886 9.782700
				CHANNELS 3 Xrotation Yrotation Zrotation
				JOINT LeftFoot
				{
					OFFSET -0.524474 -53.427422 -12.948200
					CHANNELS 3 Xrotation Yrotation Zrotation
					JOINT LeftToeBase
					{
						OFFSET 0.192200 -14.009700 16.364100
						CHANNELS 3 Xrotation Yrotation Zrotation
						JOINT LeftToe_End
						{
							OFFSET -1.784700 -0.561700 9.474800
							CHANNELS 3 Xrotation Yrotation Zrotation
							End Site
							{
								OFFSET 0 0 0
							}
						}
					}
				}
			}
		}
	}
	JOINT RightUpLeg_virtual
	{
		OFFSET 0.000000 0.000000 0.000000
		CHANNELS 3 Xrotation Yrotation Zrotation
		JOINT RightUpLeg
		{
			OFFSET -12.883000 -6.336304 -1.092800
			CHANNELS 3 Xrotation Yrotation Zrotation
			JOINT RightLeg
			{
				OFFSET -0.524587 -46.096825 9.782800
				CHANNELS 3 Xrotation Yrotation Zrotation
				JOINT RightFoot
				{
					OFFSET 0.524587 -53.427383 -12.948300
					CHANNELS 3 Xrotation Yrotation Zrotation
					JOINT RightToeBase
					{
						OFFSET -0.192200 -14.009700 16.364100
						CHANNELS 3 Xrotation Yrotation Zrotation
						JOINT RightToe_End
						{
							OFFSET 1.784700 -0.561700 9.474800
							CHANNELS 3 Xrotation Yrotation Zrotation
							End Site
							{
								OFFSET 0 0 0
							}
						}
					}
				}
			}
		}
	}
	JOINT Spine_virtual
	{
		OFFSET 0.000000 0.000000 0.000000
		CHANNELS 3 Xrotation Yrotation Zrotation
		JOINT Spine
		{
			OFFSET 0.072000 7.257294 -0.789700
			CHANNELS 3 Xrotation Yrotation Zrotation
			JOINT Spine1
			{
				OFFSET 0.000000 12.508769 -0.658067
				CHANNELS 3 Xrotation Yrotation Zrotation
				JOINT Spine1_split
				{
					OFFSET 0.000000 12.508769 -0.658067
					CHANNELS 3 Xrotation Yrotation Zrotation
					JOINT Spine2
					{
						OFFSET 0.000000 12.508769 -0.658067
						CHANNELS 3 Xrotation Yrotation Zrotation
						JOINT Neck_virtual
						{
							OFFSET 0.000000 0.000000 0.000000
							CHANNELS 3 Xrotation Yrotation Zrotation
							JOINT Neck
							{
								OFFSET 0.000000 14.033295 7.520400
								CHANNELS 3 Xrotation Yrotation Zrotation
								JOINT Head
								{
									OFFSET 0.000000 8.198502 5.703100
									CHANNELS 3 Xrotation Yrotation Zrotation
									JOINT HeadTop_End
									{
										OFFSET 0.000000 17.760803 13.332701
										CHANNELS 3 Xrotation Yrotation Zrotation
										End Site
										{
											OFFSET 0 0 0
										}
									}
								}
							}
						}
						JOINT LeftShoulder_virtual
						{
							OFFSET 0.000000 0.000000 0.000000
							CHANNELS 3 Xrotation Yrotation Zrotation
							JOINT LeftShoulder
							{
								OFFSET 6.292450 5.785301 -0.669000
								CHANNELS 3 Xrotation Yrotation Zrotation
								JOINT LeftShoulder_split
								{
									OFFSET 6.292450 5.785301 -0.669000
									CHANNELS 3 Xrotation Yrotation Zrotation
									JOINT LeftArm
									{
										OFFSET 13.907140 -6.093903 1.965100
										CHANNELS 3 Xrotation Yrotation Zrotation
										JOINT LeftForeArm
										{
											OFFSET 34.140198 0.000000 0.000000
											CHANNELS 3 Xrotation Yrotation Zrotation
											JOINT LeftHand
											{
												OFFSET 40.960209 0.000000 0.000000
												CHANNELS 3 Xrotation Yrotation Zrotation
												End Site
												{
													OFFSET 0 0 0
												}
											}
										}
									}
								}
							}
						}
						JOINT RightShoulder_virtual
						{
							OFFSET 0.000000 0.000000 0.000000
							CHANNELS 3 Xrotation Yrotation Zrotation
							JOINT RightShoulder
							{
								OFFSET -6.292450 5.785301 -0.669000
								CHANNELS 3 Xrotation Yrotation Zrotation
								JOINT RightShoulder_split
								{
									OFFSET -6.292450 5.785301 -0.669000
									CHANNELS 3 Xrotation Yrotation Zrotation
									JOINT RightArm
									{
										OFFSET -13.907140 -6.093903 1.965100
										CHANNELS 3 Xrotation Yrotation Zrotation
										JOINT RightForeArm
										{
											OFFSET -34.140198 0.000000 0.000000
											CHANNELS 3 Xrotation Yrotation Zrotation
											JOINT RightHand
											{
												OFFSET -40.960209 0.000000 0.000000
												CHANNELS 3 Xrotation Yrotation Zrotation
												End Site
												{
													OFFSET 0 0 0
												}
											}
										}
									}
								}
							}
						}
					}
				}
			}
		}
	}
}
MOTION
Frames: 11
Frame Time: 0.03333333
27.002663 103.948166 8.404060 0.000000 0.000000 0.000000 156.369326 -65.537475 162.800496 -55.238916 42.410014 46.091397 36.129959 -1.718711 -4.011921 5.032668 9.961778 -3.238638 0.814876 5.539330 -9.575669 0.000000 0.000000 0.000000 157.810947 -65.885091 165.783800 -43.705209 -18.101723 -28.961652 30.161241 -5.748023 -0.981597 -10.192884 -2.798675 10.342646 1.997510 3.547319 0.883459 0.000000 0.000000 0.000000 149.717132 -68.790749 155.639097 10.624708 -3.337480 -0.895182 5.440947 -3.128189 -2.800507 0.337806 -1.518714 0.952720 0.000000 0.000000 0.000000 -1.722390 -4.880571 -1.921311 4.645638 14.372815 -2.349596 -15.275633 11.224853 -3.270832 0.000000 0.000000 0.000000 -1.627927 -5.409247 -1.577291 -1.130881 -9.864307 -5.540229 0.350455 0.630991 0.808374 -25.133527 -14.224413 -47.847616 -14.561460 -28.044880 -14.616309 0.000000 0.000000 0.000000 -3.478283 -5.654462 -1.876781 -5.531833 19.167381 3.733194 1.357747 -3.503809 0.186257 -12.557112 -11.074128 60.463423 10.584234 38.231048 -2.125814 0.000000 0.000000 0.000000 
27.353630 103.642532 6.691753 0.000000 0.000000 0.000000 156.205962 -63.849080 162.856640 -58.439406 40.921924 48.295588 38.194841 -4.831169 -3.575554 9.151128 7.922434 -1.134563 -1.181655 6.248367 -11.639210 0.000000 0.000000 0.000000 158.264840 -63.265201 166.475506 -45.283154 -17.971840 -28.584944 30.943704 -4.790451 -0.643265 -11.463713 -1.227168 10.395931 1.735554 3.853168 0.711974 0.000000 0.000000 0.000000 150.239600 -66.300516 156.485904 10.867938 -3.316314 -1.148679 4.725273 -2.203954 -2.906854 0.436873 -1.826176 0.824905 0.000000 0.000000 0.000000 -2.479409 -3.879211 -1.994810 3.974768 15.967447 -3.412327 -15.701825 12.796370 -3.306986 0.000000 0.000000 0.000000 -2.385394 -4.354522 -1.688930 -0.949637 -9.400160 -5.621868 0.358495 0.443314 0.475825 -25.510034 -15.703575 -47.995913 -15.777841 -30.483756 -14.843854 0.000000 0.000000 0.000000 -4.122311 -4.582443 -1.967087 -5.656766 18.999713 3.653201 1.353457 -3.433835 -0.035146 -11.883393 -11.236380 60.722151 12.757582 38.098802 -3.464863 0.000000 0.000000 0.000000 
27.569096 103.408951 5.280468 0.000000 0.000000 0.000000 156.298511 -62.412308 163.037080 -60.692931 39.902809 49.595530 39.348781 -7.616508 -2.995610 12.077647 6.354605 1.576817 -2.682408 6.425723 -12.870101 0.000000 0.000000 0.000000 158.697096 -60.982763 167.048887 -46.156858 -17.542767 -28.132709 32.039553 -3.910656 -0.363520 -13.159238 0.133971 10.178500 1.752565 3.970319 0.865588 0.000000 0.000000 0.000000 150.833239 -64.113715 157.347191 11.195825 -3.239484 -1.238055 4.059759 -1.314899 -3.093600 0.578783 -2.186593 0.763827 0.000000 0.000000 0.000000 -3.220691 -2.915187 -2.123425 3.451425 17.457586 -4.273912 -15.870240 14.167638 -3.282087 0.000000 0.000000 0.000000 -3.114273 -3.343206 -1.870196 -0.803325 -9.106781 -5.617331 0.635903 0.325817 0.251786 -25.877025 -15.756572 -48.346579 -17.123779 -32.956004 -15.243411 0.000000 0.000000 0.000000 -4.725427 -3.546975 -2.121332 -5.704813 18.821539 3.459409 1.243054 -3.359721 -0.232963 -10.857521 -11.428584 60.874710 14.594707 37.971873 -4.604655 0.000000 0.000000 0.000000 
27.601059 103.248985 4.018700 0.000000 0.000000 0.000000 156.587728 -61.125624 163.257914 -62.603294 39.090604 50.564307 39.611590 -10.121701 -2.527198 13.518314 5.123647 4.055005 -1.903314 5.806737 -13.361420 0.000000 0.000000 0.000000 159.080064 -59.050756 167.475665 -46.261517 -16.834871 -27.578856 33.390739 -3.269538 -0.133396 -15.354057 1.203691 9.542642 2.369304 3.936945 1.180286 0.000000 0.000000 0.000000 151.602551 -62.154038 158.273023 11.620948 -3.138864 -1.152179 3.451708 -0.491085 -3.340610 0.668928 -2.498103 0.755470 0.000000 0.000000 0.000000 -3.938984 -2.020095 -2.307618 3.074198 18.773239 -4.929018 -15.772160 15.302371 -3.159115 0.000000 0.000000 0.000000 -3.809516 -2.396311 -2.107041 -0.708505 -8.946957 -5.593314 1.086125 0.283671 0.116127 -26.149113 -14.533956 -48.698979 -18.469475 -35.270045 -15.727865 0.000000 0.000000 0.000000 -5.293359 -2.589048 -2.346235 -5.677555 18.609931 3.192373 1.060804 -3.421204 -0.405527 -9.628969 -11.605534 60.794633 15.986088 37.864568 -5.466932 0.000000 0.000000 0.000000 
27.348732 103.127991 2.997971 0.000000 0.000000 0.000000 157.136698 -59.813169 163.657562 -64.991408 37.916470 51.790872 39.773435 -12.641404 -2.235423 14.844409 3.743699 5.253413 0.899401 4.376976 -12.803992 0.000000 0.000000 0.000000 159.412804 -57.404885 167.752151 -45.876533 -15.730778 -26.966138 34.857109 -2.733092 0.044172 -17.670753 2.097878 8.923813 3.120471 3.801681 1.515481 0.000000 0.000000 0.000000 152.443074 -60.386263 159.065147 12.127314 -3.013810 -0.893766 2.906763 0.268262 -3.628438 0.619226 -2.621220 0.952014 0.000000 0.000000 0.000000 -4.601351 -1.191326 -2.531714 2.854581 19.862578 -5.418627 -15.444707 16.135702 -2.897604 0.000000 0.000000 0.000000 -4.479995 -1.509609 -2.382365 -0.670933 -8.924148 -5.598911 1.704281 0.326466 0.063752 -26.200723 -12.427004 -48.977774 -19.694982 -37.247426 -16.171111 0.000000 0.000000 0.000000 -5.822631 -1.706880 -2.628099 -5.610483 18.385746 2.962203 0.816767 -3.582753 -0.557427 -8.248492 -11.692708 60.474085 16.803174 37.643129 -5.966506 0.000000 0.000000 0.000000 
26.791664 102.976334 2.055927 0.000000 0.000000 0.000000 157.970541 -58.419742 164.293753 -67.193489 36.133494 52.643324 40.157609 -15.329091 -1.958100 16.705092 1.970270 5.050023 2.851047 2.526953 -10.535392 0.000000 0.000000 0.000000 159.945695 -55.723221 168.170568 -45.419467 -14.348045 -26.430846 36.174345 -2.183600 0.159218 -19.385998 2.852483 8.787592 3.373064 3.604923 1.731710 0.000000 0.000000 0.000000 153.460909 -58.679931 159.858911 12.678958 -2.843195 -0.525457 2.415080 1.005447 -3.927602 0.517447 -2.715647 1.139809 0.000000 0.000000 0.000000 -5.179602 -0.400996 -2.772046 2.810733 20.663146 -5.847314 -14.991072 16.596460 -2.487163 0.000000 0.000000 0.000000 -5.118404 -0.657985 -2.673417 -0.679474 -8.994455 -5.692558 2.452803 0.277697 0.033848 -25.895440 -9.932332 -49.088512 -20.675859 -38.824322 -16.490477 0.000000 0.000000 0.000000 -6.330438 -0.881985 -2.932590 -5.503664 18.157595 2.836596 0.466986 -3.746715 -0.594611 -6.701883 -11.759266 59.992044 16.948749 37.041086 -6.032122 0.000000 0.000000 0.000000 
25.837055 102.732651 1.241547 0.000000 0.000000 0.000000 159.132015 -56.820665 165.267437 -68.292555 34.260686 52.421408 40.555252 -17.392095 -1.696458 17.488747 0.507161 4.829523 2.018136 0.571860 -6.847411 0.000000 0.000000 0.000000 160.783910 -53.881259 168.876386 -44.996853 -12.925729 -25.915968 37.292532 -1.600588 0.218173 -20.220661 3.443145 9.132755 3.185270 3.379800 1.782721 0.000000 0.000000 0.000000 154.705602 -56.969720 160.807515 13.229746 -2.593109 -0.137024 1.967369 1.757735 -4.201358 0.320391 -2.730254 1.339672 0.000000 0.000000 0.000000 -5.653796 0.385090 -2.993103 2.911493 21.142533 -6.296327 -14.535394 16.638486 -1.926964 0.000000 0.000000 0.000000 -5.714757 0.195057 -2.952894 -0.712832 -9.109500 -5.857679 3.219955 0.154680 -0.003383 -25.037827 -7.502342 -49.021538 -21.327295 -39.988094 -16.626612 0.000000 0.000000 0.000000 -6.810590 -0.079341 -3.229363 -5.349957 17.916653 2.818986 0.177765 -3.745460 -0.610633 -4.970474 -11.856260 59.503071 16.388313 35.958839 -5.689302 0.000000 0.000000 0.000000 
24.534374 102.326141 0.506462 0.000000 0.000000 0.000000 160.519896 -55.086989 166.493579 -68.232825 32.993519 51.113977 40.616219 -17.849280 -1.657290 15.615744 0.162586 5.849508 -0.642517 -1.529559 -2.889576 0.000000 0.000000 0.000000 161.877792 -51.883357 169.837462 -44.494461 -11.663832 -25.349115 38.084889 -1.126960 0.233188 -20.648106 3.834107 9.601188 2.987080 3.145529 1.712206 0.000000 0.000000 0.000000 156.113249 -55.169767 161.932488 13.739981 -2.233570 0.126024 1.554059 2.559834 -4.416174 0.118106 -2.830337 1.487588 0.000000 0.000000 0.000000 -6.030595 1.195823 -3.153976 3.161788 21.268765 -6.841908 -14.210431 16.310558 -1.246013 0.000000 0.000000 0.000000 -6.285630 1.065848 -3.190995 -0.747889 -9.235331 -6.033613 3.974337 -0.045874 0.011676 -23.655191 -5.443269 -48.840067 -21.586087 -40.676136 -16.531300 0.000000 0.000000 0.000000 -7.273052 0.738365 -3.471187 -5.145802 17.655289 2.852679 -0.103277 -3.411493 -0.689400 -3.085447 -12.106342 59.126974 15.177879 34.561256 -5.052229 0.000000 0.000000 0.000000 
22.945322 101.773911 -0.061462 0.000000 0.000000 0.000000 161.959208 -53.210363 167.821600 -67.096684 32.403616 48.807319 40.152339 -16.865154 -1.753770 11.619917 0.820319 7.496265 -2.574712 -3.596210 0.096016 0.000000 0.000000 0.000000 163.129014 -49.834016 170.998540 -43.772196 -10.793265 -24.836079 38.743859 -0.999114 0.246709 -20.926137 3.904047 9.787086 2.907346 2.917470 1.581005 0.000000 0.000000 0.000000 157.562465 -53.318799 163.272189 14.173390 -1.793369 0.116489 1.160587 3.398801 -4.547013 0.042455 -3.045787 1.552542 0.000000 0.000000 0.000000 -6.352281 2.027494 -3.217832 3.546088 21.057442 -7.539630 -14.082943 15.673092 -0.499347 0.000000 0.000000 0.000000 -6.842210 1.950616 -3.338632 -0.775122 -9.299308 -6.155614 4.615996 -0.156644 0.059140 -21.843929 -3.928651 -48.603650 -21.527785 -41.009593 -16.272825 0.000000 0.000000 0.000000 -7.712289 1.565431 -3.610788 -4.887725 17.321973 2.818155 -0.269261 -2.771332 -0.733447 -1.083984 -12.660650 58.984175 13.415227 33.244382 -4.284338 0.000000 0.000000 0.000000 
21.135017 101.091606 -0.473499 0.000000 0.000000 0.000000 163.343332 -51.207906 169.216571 -65.681845 31.661069 45.650611 39.515844 -15.546764 -1.738153 7.789138 1.785391 8.071587 -2.465464 -5.241750 1.713249 0.000000 0.000000 0.000000 164.298384 -47.877058 172.193386 -42.912900 -10.223387 -24.527232 39.494206 -1.119949 0.257446 -20.974235 3.746056 9.861915 2.852097 2.709182 1.419882 0.000000 0.000000 0.000000 158.841226 -51.549439 164.641327 14.517050 -1.321176 -0.261568 0.796919 4.231175 -4.563025 0.044186 -3.359076 1.636740 0.000000 0.000000 0.000000 -6.647594 2.850925 -3.155075 4.033019 20.562662 -8.363516 -14.155141 14.909658 0.252980 0.000000 0.000000 0.000000 -7.406043 2.815013 -3.350869 -0.780858 -9.266229 -6.122980 5.109125 -0.155909 0.091329 -19.757331 -2.999247 -48.385688 -21.302549 -41.133219 -15.967048 0.000000 0.000000 0.000000 -8.136579 2.380538 -3.613819 -4.606004 16.881759 2.644137 -0.303335 -2.067494 -0.696855 0.914983 -13.657766 59.127254 11.193653 32.504355 -3.489122 0.000000 0.000000 0.000000 
19.170483 100.401398 -0.796402 0.000000 0.000000 0.000000 164.429769 -49.293660 170.429544 -64.436653 30.740923 42.193815 38.251720 -14.531601 -1.663089 5.451925 2.398364 7.386859 -1.822035 -6.452515 2.619050 0.000000 0.000000 0.000000 165.296384 -46.113302 173.374462 -42.151426 -9.684671 -24.642943 40.319525 -1.125162 0.170619 -20.734168 3.617554 10.496858 2.641807 2.541420 1.250252 0.000000 0.000000 0.000000 159.834582 -49.963889 165.868630 14.743621 -0.863045 -1.016335 0.464263 4.999844 -4.447831 0.045640 -3.808206 1.623433 0.000000 0.000000 0.000000 -6.957494 3.612946 -2.952927 4.578625 19.849039 -9.281604 -14.372593 14.191333 0.930272 0.000000 0.000000 0.000000 -7.971221 3.614013 -3.202569 -0.754503 -9.125929 -5.926276 5.389696 -0.088365 0.094136 -17.518860 -2.549727 -48.191605 -21.052680 -41.077710 -15.727796 0.000000 0.000000 0.000000 -8.544921 3.142672 -3.446489 -4.357192 16.352960 2.315357 -0.088118 -1.441060 -0.475894 2.750409 -15.180410 59.544735 8.555538 32.672087 -2.648323 0.000000 0.000000 0.000000 
